<?xml version="1.0" encoding="utf-8"?>
<svg viewBox="0 0 1748 1349" width="1748" height="1349" xmlns="http://www.w3.org/2000/svg">
  <path opacity="1.000000" stroke="none" d="&#10;M1.000005,1014.000000 &#10;&#9;C1.000000,676.433899 1.000000,338.867859 1.000000,1.000000 &#10;&#9;C132.360046,1.000000 263.720306,1.000000 395.635254,1.423405 &#10;&#9;C394.843872,2.230716 393.517426,2.838114 392.148193,2.958364 &#10;&#9;C387.224152,3.390808 382.208527,3.219639 377.366699,4.069471 &#10;&#9;C361.450409,6.863095 345.471405,9.472172 329.743134,13.127344 &#10;&#9;C300.522400,19.918085 272.423401,30.055237 245.418304,43.201481 &#10;&#9;C222.691498,54.265026 200.718796,66.635834 180.647568,82.024170 &#10;&#9;C166.878174,92.580994 153.268082,103.463821 140.543427,115.235062 &#10;&#9;C124.798149,129.800613 109.587654,145.029694 96.973091,162.541992 &#10;&#9;C87.530197,175.651199 77.363167,188.348495 69.118973,202.182907 &#10;&#9;C59.423782,218.452194 51.182133,235.616409 42.813000,252.639755 &#10;&#9;C32.828239,272.949371 26.094080,294.522034 20.127892,316.267487 &#10;&#9;C13.144770,341.719452 9.092948,367.791656 7.210791,394.072235 &#10;&#9;C6.104599,409.518005 6.609653,425.119202 7.108927,440.627380 &#10;&#9;C7.516737,453.294525 8.531405,465.985260 10.118184,478.559418 &#10;&#9;C11.755013,491.530151 13.497890,504.612946 16.824471,517.216492 &#10;&#9;C22.181835,537.514099 27.907518,557.823547 35.293652,577.444397 &#10;&#9;C42.027008,595.331238 50.114746,612.910522 59.542217,629.526550 &#10;&#9;C69.891685,647.767395 81.820526,665.218872 94.257927,682.134399 &#10;&#9;C104.067085,695.475403 115.472252,707.679504 126.597923,720.000916 &#10;&#9;C132.354950,726.376709 138.892181,732.083252 145.351212,737.781250 &#10;&#9;C153.954025,745.370544 162.338837,753.347351 171.688385,759.918335 &#10;&#9;C187.282425,770.877869 203.454468,781.033630 219.589722,791.199829 &#10;&#9;C240.330154,804.267700 262.833862,813.701538 285.798737,822.000183 &#10;&#9;C313.993469,832.188660 342.875641,839.770203 372.749542,843.025269 &#10;&#9;C387.307556,844.611511 401.906586,846.538086 416.512451,846.780334 &#10;&#9;C433.538818,847.062805 450.614471,846.003235 467.627594,844.894287 &#10;&#9;C479.374756,844.128601 491.165253,842.913635 502.737915,840.808289 &#10;&#9;C530.159912,835.819641 556.940674,828.491211 582.942261,818.193420 &#10;&#9;C607.532715,808.454407 631.043030,796.676880 653.535278,782.882751 &#10;&#9;C675.797729,769.229553 696.696838,753.534790 715.603577,735.601807 &#10;&#9;C731.158630,720.847717 745.898010,705.065125 759.591736,688.570129 &#10;&#9;C770.717957,675.167847 780.138184,660.278076 789.595093,645.584656 &#10;&#9;C796.653870,634.617188 802.902344,623.084473 808.875671,611.476135 &#10;&#9;C813.433899,602.617676 816.860168,593.183228 821.082825,584.141663 &#10;&#9;C822.351074,581.426025 821.576233,579.999329 819.742615,578.127563 &#10;&#9;C810.926147,569.127258 802.258240,559.981750 793.503113,550.921204 &#10;&#9;C781.621948,538.625488 769.806946,526.263672 757.784241,514.107605 &#10;&#9;C744.309631,500.483490 730.638000,487.054138 717.042114,473.550110 &#10;&#9;C715.776062,472.292572 714.438354,471.107208 712.931335,469.698975 &#10;&#9;C708.440063,475.564484 703.738159,480.836304 700.014832,486.726746 &#10;&#9;C687.643921,506.298096 672.425598,523.242310 655.094666,538.556519 &#10;&#9;C639.861511,552.017029 622.805359,561.896423 603.486877,567.904297 &#10;&#9;C600.061401,568.969604 598.642151,570.703918 597.909790,574.135437 &#10;&#9;C594.089661,592.035217 590.010925,609.879822 586.008728,627.740662 &#10;&#9;C583.013245,641.109070 579.546326,654.391602 577.118103,667.861816 &#10;&#9;C574.713318,681.201294 564.468506,693.679138 551.472534,696.706360 &#10;&#9;C538.172913,699.804382 526.743225,689.726013 526.909607,677.620667 &#10;&#9;C527.225769,654.626465 527.001404,631.624756 527.001465,608.626160 &#10;&#9;C527.001526,598.977173 527.001526,589.328247 527.001526,579.416138 &#10;&#9;C525.075378,578.905273 523.371155,578.471985 521.677490,578.000854 &#10;&#9;C514.285828,575.944397 506.545013,574.659668 499.627411,571.547058 &#10;&#9;C494.753662,569.354126 492.025665,570.452026 489.559601,573.996826 &#10;&#9;C483.061523,583.337219 473.785614,589.369751 464.028595,594.244873 &#10;&#9;C448.940674,601.783447 432.838806,604.818298 415.823334,602.068726 &#10;&#9;C394.533997,598.628540 376.834808,589.294861 363.579041,571.988770 &#10;&#9;C361.736115,569.582703 359.781494,568.050964 355.839172,569.735168 &#10;&#9;C348.078339,573.050659 340.004150,576.219482 331.751038,577.588013 &#10;&#9;C326.325989,578.487610 325.912781,580.465393 325.929596,584.815552 &#10;&#9;C326.052307,616.646423 326.014618,648.478088 325.987091,680.309448 &#10;&#9;C325.977295,691.659668 314.778503,701.928040 304.763519,699.867920 &#10;&#9;C288.798309,696.583923 279.056458,685.990295 275.895538,669.655640 &#10;&#9;C273.017426,654.782104 269.337616,640.065308 266.150909,625.249390 &#10;&#9;C262.679382,609.109314 259.290283,592.950256 256.052979,576.761963 &#10;&#9;C255.391449,573.454102 253.735657,571.949768 250.626160,570.946594 &#10;&#9;C219.550156,560.921387 193.130692,544.196594 173.223892,517.747803 &#10;&#9;C160.465637,500.796783 153.027359,481.839050 151.164139,460.928528 &#10;&#9;C149.809677,445.727722 152.388870,430.688629 156.950912,416.126099 &#10;&#9;C167.064621,383.842010 185.763031,357.268951 210.736145,334.661255 &#10;&#9;C225.067123,321.687683 240.661362,310.530365 257.777527,301.936554 &#10;&#9;C276.157104,292.708344 295.073395,284.337708 314.327820,277.119629 &#10;&#9;C335.759583,269.085327 357.962006,263.313263 380.895355,261.002594 &#10;&#9;C393.616486,259.720856 406.315125,257.394836 419.045990,257.228210 &#10;&#9;C436.907928,256.994446 454.846008,257.683685 472.646088,259.208832 &#10;&#9;C486.293884,260.378204 499.903320,262.880890 513.306030,265.813293 &#10;&#9;C532.285522,269.965820 550.923645,275.515533 568.510925,283.992065 &#10;&#9;C582.496521,290.732666 596.817017,296.965851 610.120728,304.883026 &#10;&#9;C624.504761,313.443146 638.061218,323.448486 651.629028,333.304840 &#10;&#9;C659.720032,339.182587 667.673462,345.450745 674.730469,352.502411 &#10;&#9;C684.515808,362.280365 693.356934,372.999298 702.684204,383.240753 &#10;&#9;C710.690918,392.032257 718.803101,400.727844 726.885803,409.450043 &#10;&#9;C739.568359,423.136078 752.281982,436.793427 764.950012,450.492859 &#10;&#9;C772.670654,458.842224 780.328613,467.249573 788.018127,475.627777 &#10;&#9;C799.058289,487.656830 810.113464,499.672058 821.139771,511.713715 &#10;&#9;C831.717468,523.265381 842.254700,534.854004 852.830872,546.407043 &#10;&#9;C867.432556,562.357300 881.777710,578.554199 896.735352,594.163879 &#10;&#9;C916.421021,614.707886 936.483887,634.895020 956.594360,655.026001 &#10;&#9;C972.572754,671.020691 988.861755,686.705200 1005.020935,702.519104 &#10;&#9;C1018.324280,715.538208 1031.507812,728.683899 1045.008545,741.495239 &#10;&#9;C1051.184082,747.355469 1057.690430,752.967407 1064.583740,757.948669 &#10;&#9;C1076.987915,766.912292 1089.700806,775.460999 1102.459717,783.919006 &#10;&#9;C1121.056519,796.247131 1140.995117,806.219482 1161.511353,814.751526 &#10;&#9;C1185.186279,824.597046 1209.575684,832.668762 1234.772949,837.797607 &#10;&#9;C1247.264038,840.340088 1259.919678,842.116150 1272.542603,843.952332 &#10;&#9;C1279.536743,844.969788 1286.604858,845.582153 1293.661133,846.047058 &#10;&#9;C1305.678833,846.838806 1317.711670,847.818848 1329.741699,847.868469 &#10;&#9;C1339.277344,847.907837 1348.827515,846.781738 1358.354370,845.974426 &#10;&#9;C1368.845337,845.085388 1379.463501,844.740112 1389.764160,842.780090 &#10;&#9;C1407.201782,839.461731 1424.497559,835.319641 1441.736084,831.052429 &#10;&#9;C1466.240356,824.986511 1489.540161,815.488220 1512.090942,804.323608 &#10;&#9;C1525.087280,797.889282 1537.572754,790.375671 1550.045166,782.940308 &#10;&#9;C1574.242188,768.515442 1596.114502,750.958984 1616.643799,731.771973 &#10;&#9;C1625.487427,723.506653 1633.694092,714.528992 1641.833862,705.551941 &#10;&#9;C1647.889282,698.873718 1653.878540,692.027527 1659.007202,684.638428 &#10;&#9;C1670.837402,667.594177 1682.801392,650.577209 1693.420776,632.779175 &#10;&#9;C1701.947021,618.489380 1709.503540,603.447083 1715.801392,588.048035 &#10;&#9;C1722.825806,570.872375 1728.611572,553.106445 1733.684570,535.242065 &#10;&#9;C1738.042725,519.895142 1741.122925,504.131378 1743.844604,488.392242 &#10;&#9;C1745.717529,477.561462 1745.972168,466.453644 1747.087646,455.483643 &#10;&#9;C1747.177612,454.600037 1748.337402,453.825287 1749.000000,453.000000 &#10;&#9;C1749.000000,751.897766 1749.000000,1050.795532 1749.000000,1350.000000 &#10;&#9;C1639.306641,1350.000000 1529.613037,1350.000000 1419.557861,1349.670410 &#10;&#9;C1420.448853,1348.576050 1421.649414,1347.705444 1422.961670,1347.062866 &#10;&#9;C1438.322021,1339.538696 1446.077515,1327.454590 1446.048706,1310.141968 &#10;&#9;C1445.936279,1242.813110 1446.065430,1175.483643 1445.974243,1108.154663 &#10;&#9;C1445.945068,1086.642822 1424.925659,1069.757568 1405.028076,1071.172363 &#10;&#9;C1381.636475,1072.835693 1366.623901,1090.374268 1366.857788,1113.369873 &#10;&#9;C1367.212158,1148.197388 1366.853027,1183.031738 1367.011108,1217.862183 &#10;&#9;C1367.057495,1228.077759 1366.110107,1237.979370 1362.877319,1247.770264 &#10;&#9;C1357.636597,1263.643066 1346.906494,1273.808472 1331.069092,1277.758667 &#10;&#9;C1314.174805,1281.972534 1297.289307,1281.017456 1280.660156,1274.960693 &#10;&#9;C1266.016846,1269.627319 1255.868408,1254.670410 1255.960571,1240.343018 &#10;&#9;C1256.247559,1195.681030 1256.054688,1151.015991 1256.072876,1106.352051 &#10;&#9;C1256.078125,1093.289917 1250.900635,1082.541992 1240.282349,1075.262451 &#10;&#9;C1228.935303,1067.483276 1216.455200,1066.477905 1203.957031,1073.017090 &#10;&#9;C1191.786987,1079.384644 1184.972534,1089.190552 1184.983887,1103.318115 &#10;&#9;C1185.024902,1154.314941 1184.918701,1205.312134 1185.088745,1256.308472 &#10;&#9;C1185.113037,1263.564819 1185.865356,1270.904419 1187.134766,1278.053833 &#10;&#9;C1189.954346,1293.933838 1196.759399,1307.970825 1208.085205,1319.653564 &#10;&#9;C1216.401978,1328.232544 1226.100342,1334.627930 1237.170898,1339.228638 &#10;&#9;C1258.492188,1348.089966 1280.442993,1350.314453 1303.064819,1346.277100 &#10;&#9;C1320.197388,1343.219360 1335.610352,1335.937256 1350.030762,1326.418579 &#10;&#9;C1355.493164,1322.812988 1360.826294,1319.011353 1366.274658,1315.260254 &#10;&#9;C1366.724854,1316.082642 1367.073853,1316.648926 1367.350342,1317.248779 &#10;&#9;C1367.555786,1317.694336 1367.715698,1318.173218 1367.813232,1318.654053 &#10;&#9;C1370.459473,1331.703735 1377.642212,1341.220825 1389.712158,1347.018433 &#10;&#9;C1391.261475,1347.762451 1392.576416,1348.994141 1394.000000,1350.000000 &#10;&#9;C1178.973145,1350.000000 963.946289,1350.000000 748.589294,1349.666992 &#10;&#9;C749.112732,1348.894653 749.921082,1348.233398 750.826599,1348.048706 &#10;&#9;C765.210266,1345.117065 777.416138,1328.636353 777.280823,1313.753296 &#10;&#9;C776.649048,1244.285645 776.936523,1174.809082 777.057922,1105.335938 &#10;&#9;C777.080566,1092.398926 771.120117,1083.109863 760.693237,1076.444702 &#10;&#9;C742.893188,1065.066284 720.245300,1072.548706 711.146118,1090.723389 &#10;&#9;C709.012451,1094.985229 708.252991,1099.935059 706.803284,1104.761719 &#10;&#9;C701.884338,1100.320801 697.239319,1095.571899 692.044250,1091.529785 &#10;&#9;C663.905396,1069.635620 631.749634,1061.888062 596.930664,1067.227417 &#10;&#9;C571.554932,1071.118408 548.926086,1082.190308 530.250610,1100.182373 &#10;&#9;C518.734741,1111.276855 509.455475,1124.138306 502.582153,1138.684937 &#10;&#9;C493.736053,1157.406738 489.030334,1177.066528 489.047546,1197.771851 &#10;&#9;C489.054291,1205.891968 488.846130,1214.140991 490.148285,1222.100220 &#10;&#9;C491.984711,1233.325317 494.289001,1244.619629 497.904846,1255.376099 &#10;&#9;C504.531464,1275.089233 515.181274,1292.567871 529.756958,1307.658691 &#10;&#9;C539.526611,1317.773438 550.274353,1326.575684 562.688538,1332.989502 &#10;&#9;C587.698730,1345.911133 614.219238,1349.484253 641.865967,1343.979980 &#10;&#9;C659.026794,1340.563477 674.810547,1333.923462 688.720886,1323.171265 &#10;&#9;C694.937561,1318.366089 701.022766,1313.390991 707.717468,1308.054688 &#10;&#9;C707.833374,1310.323364 707.976746,1311.935913 707.988892,1313.549561 &#10;&#9;C708.123230,1331.389893 717.559204,1343.536743 734.852478,1348.226807 &#10;&#9;C735.668579,1348.448242 736.288635,1349.392456 737.000000,1350.000000 &#10;&#9;C611.973145,1350.000000 486.946259,1350.000000 361.601562,1349.681152 &#10;&#9;C362.916046,1348.619263 364.511353,1347.777954 366.186340,1347.148560 &#10;&#9;C385.533905,1339.876587 398.737976,1326.658203 403.930176,1306.510010 &#10;&#9;C415.770294,1260.564575 427.278259,1214.533325 438.808411,1168.508545 &#10;&#9;C449.387024,1126.281860 460.093201,1084.083496 470.136414,1041.728638 &#10;&#9;C472.938110,1029.913086 471.863831,1017.999451 464.163422,1007.471069 &#10;&#9;C454.545624,994.320923 441.600952,988.390259 425.701141,990.378601 &#10;&#9;C407.603363,992.641846 395.765717,1003.050293 391.148041,1020.878052 &#10;&#9;C388.737701,1030.183716 386.936584,1039.650146 384.965118,1049.065918 &#10;&#9;C378.407532,1080.384888 371.929535,1111.720581 365.359467,1143.036987 &#10;&#9;C359.468170,1171.117798 353.502228,1199.183105 347.554382,1227.251953 &#10;&#9;C345.896851,1235.074219 344.186737,1242.885254 342.225830,1251.975830 &#10;&#9;C341.156891,1249.795532 340.589447,1248.973267 340.331726,1248.063232 &#10;&#9;C334.543549,1227.626221 328.762268,1207.187012 323.035950,1186.732666 &#10;&#9;C316.240814,1162.460327 309.558899,1138.156128 302.717712,1113.896851 &#10;&#9;C294.525452,1084.846436 286.417389,1055.769653 277.857422,1026.827148 &#10;&#9;C274.538513,1015.605286 268.202911,1005.931458 258.097565,999.561035 &#10;&#9;C248.423431,993.462524 237.665771,990.799011 226.154282,991.999878 &#10;&#9;C208.942169,993.795471 195.846893,1002.600464 188.776443,1017.970886 &#10;&#9;C183.430878,1029.591553 180.775848,1042.469360 177.136032,1054.850220 &#10;&#9;C172.412964,1070.915649 167.911987,1087.046509 163.295212,1103.143311 &#10;&#9;C157.851685,1122.122681 152.314056,1141.075195 146.947876,1160.076416 &#10;&#9;C139.147141,1187.697876 131.468979,1215.353882 123.720497,1242.990112 &#10;&#9;C122.954453,1245.722412 122.063484,1248.419678 121.230499,1251.133179 &#10;&#9;C118.932358,1244.297607 117.395912,1237.698853 116.021271,1231.066528 &#10;&#9;C110.434967,1204.113647 104.868378,1177.156494 99.350334,1150.189575 &#10;&#9;C91.204712,1110.381470 83.060104,1070.573120 75.017647,1030.744019 &#10;&#9;C72.704895,1019.290466 70.220177,1008.284180 60.691563,999.925171 &#10;&#9;C47.454353,988.312622 22.676201,986.926025 10.891323,1000.616699 &#10;&#9;C7.282288,1004.809265 4.280107,1009.524231 1.000005,1014.000000 &#10;M1702.391724,1090.021484 &#10;&#9;C1693.452759,1085.750122 1684.833374,1080.528198 1675.511841,1077.395020 &#10;&#9;C1652.461060,1069.647095 1628.605591,1067.065308 1604.395508,1069.984009 &#10;&#9;C1578.522217,1073.103271 1554.322144,1080.857788 1533.143677,1096.777954 &#10;&#9;C1522.057861,1105.111206 1512.855347,1114.901978 1508.084595,1128.017456 &#10;&#9;C1505.568481,1134.934326 1504.179199,1142.316895 1502.836426,1149.591675 &#10;&#9;C1500.700562,1161.164551 1502.964478,1172.330078 1507.499512,1182.982056 &#10;&#9;C1513.449951,1196.958252 1524.442993,1206.068115 1537.587402,1212.911621 &#10;&#9;C1561.440552,1225.330322 1587.620850,1230.087891 1613.433228,1236.164185 &#10;&#9;C1630.514404,1240.185059 1647.539307,1244.544678 1664.366211,1249.509155 &#10;&#9;C1674.649170,1252.542847 1680.117065,1261.196167 1679.978149,1271.405396 &#10;&#9;C1679.843018,1281.347534 1674.144775,1289.416016 1664.031128,1292.589600 &#10;&#9;C1657.457397,1294.652344 1650.605103,1296.037964 1643.776367,1297.031372 &#10;&#9;C1630.880371,1298.907349 1617.940796,1298.650879 1605.115479,1296.152710 &#10;&#9;C1587.052002,1292.634277 1572.671265,1282.739990 1559.674316,1270.197021 &#10;&#9;C1553.383789,1264.126099 1546.850586,1258.060547 1539.538086,1253.382202 &#10;&#9;C1534.742188,1250.313599 1528.017090,1247.585449 1522.739990,1248.416016 &#10;&#9;C1502.244507,1251.641602 1495.677124,1267.677734 1501.575684,1284.977295 &#10;&#9;C1506.726685,1300.084473 1517.687134,1311.761597 1530.530029,1320.859985 &#10;&#9;C1555.841309,1338.791748 1584.220581,1348.046997 1615.427246,1348.001587 &#10;&#9;C1622.926147,1347.990723 1630.425415,1347.949097 1637.923828,1348.010010 &#10;&#9;C1656.727905,1348.162720 1674.809570,1344.495850 1692.326660,1337.817261 &#10;&#9;C1711.450806,1330.525635 1726.919434,1319.046875 1735.694092,1299.902954 &#10;&#9;C1741.229858,1287.825806 1742.431152,1275.088379 1742.085327,1261.971069 &#10;&#9;C1741.765991,1249.859741 1738.489136,1238.726807 1732.084839,1228.601318 &#10;&#9;C1721.222290,1211.426758 1704.678833,1201.488770 1686.466797,1193.922241 &#10;&#9;C1666.273804,1185.532593 1644.798340,1181.854370 1623.671509,1176.810425 &#10;&#9;C1611.311401,1173.859497 1599.187012,1169.704224 1587.271484,1165.248779 &#10;&#9;C1584.017212,1164.032104 1580.595337,1160.190552 1579.511108,1156.825195 &#10;&#9;C1576.356934,1147.036621 1582.020630,1135.652466 1591.196167,1130.616821 &#10;&#9;C1602.103760,1124.630493 1613.940796,1123.844727 1625.970337,1124.051270 &#10;&#9;C1647.591187,1124.422119 1665.380615,1132.146973 1678.747192,1149.930298 &#10;&#9;C1687.182373,1161.152588 1698.318726,1167.891846 1713.363159,1163.938599 &#10;&#9;C1729.426880,1159.717529 1739.443481,1145.552979 1733.561279,1128.491089 &#10;&#9;C1728.000732,1112.362183 1716.854858,1100.172485 1702.391724,1090.021484 &#10;M908.024109,1254.500000 &#10;&#9;C908.022156,1171.005005 907.885437,1087.509521 908.098328,1004.015076 &#10;&#9;C908.164429,978.082825 883.053345,961.134216 858.768188,970.207275 &#10;&#9;C846.760681,974.693359 837.019592,987.429749 837.017029,998.560913 &#10;&#9;C836.992310,1104.887939 836.960327,1211.214966 837.077759,1317.541870 &#10;&#9;C837.087646,1326.473022 841.748413,1333.667480 848.239990,1339.473755 &#10;&#9;C855.800720,1346.236328 864.845703,1348.416260 874.949280,1348.099365 &#10;&#9;C892.024109,1347.563843 908.073303,1331.565308 908.045105,1314.496338 &#10;&#9;C908.012573,1294.830933 908.028992,1275.165405 908.024109,1254.500000 &#10;M954.994995,1184.500000 &#10;&#9;C954.994568,1224.160156 955.079956,1263.820679 954.939575,1303.480347 &#10;&#9;C954.899231,1314.883911 958.399048,1324.387207 966.764038,1332.419800 &#10;&#9;C976.929871,1342.181641 988.675232,1344.863770 1002.026733,1341.867432 &#10;&#9;C1019.341370,1337.981812 1030.252808,1321.263306 1030.165527,1305.565308 &#10;&#9;C1029.783936,1236.911865 1030.011108,1168.255127 1029.967041,1099.599609 &#10;&#9;C1029.965576,1097.316040 1029.687500,1094.961304 1029.092163,1092.760498 &#10;&#9;C1024.421631,1075.498779 1009.353210,1064.126709 990.369690,1064.869873 &#10;&#9;C971.205383,1065.619995 955.448730,1081.875488 955.099548,1100.516235 &#10;&#9;C954.581604,1128.168457 954.984192,1155.837891 954.994995,1184.500000 &#10;M445.726074,341.876770 &#10;&#9;C424.965942,337.640656 405.373016,339.568970 387.299652,351.826813 &#10;&#9;C371.214874,362.735931 369.464417,383.988983 382.402954,396.924927 &#10;&#9;C393.210388,407.730103 407.008301,411.654633 421.497589,412.838409 &#10;&#9;C440.028656,414.352356 457.405823,410.473663 472.579712,398.829834 &#10;&#9;C479.753174,393.325195 484.496338,379.906982 482.568909,370.905029 &#10;&#9;C479.064972,354.540039 461.781311,344.781860 445.726074,341.876770 &#10;M1090.593628,1069.958008 &#10;&#9;C1075.036133,1074.219971 1063.314453,1083.813110 1054.170532,1096.705078 &#10;&#9;C1044.165771,1110.810547 1041.788330,1126.840576 1042.980957,1143.708008 &#10;&#9;C1043.213135,1146.990723 1044.713867,1147.898560 1047.704590,1148.012085 &#10;&#9;C1073.192627,1148.978271 1098.015137,1146.270508 1121.632202,1135.746948 &#10;&#9;C1133.551880,1130.435425 1142.043335,1122.060913 1143.820923,1109.067627 &#10;&#9;C1145.929688,1093.653320 1140.023682,1080.873047 1126.772461,1072.436157 &#10;&#9;C1115.672241,1065.368896 1103.581787,1065.372803 1090.593628,1069.958008 &#10;M440.144714,522.272278 &#10;&#9;C435.027740,514.863831 429.910767,507.455322 424.869904,500.157043 &#10;&#9;C418.555664,509.311920 412.737183,518.714600 405.934998,527.341492 &#10;&#9;C398.975525,536.167908 391.051880,544.234070 383.476257,552.715942 &#10;&#9;C405.604279,581.728882 449.649323,580.590393 470.277069,555.062988 &#10;&#9;C460.303497,544.302307 450.395294,533.612061 440.144714,522.272278 &#10;z" style="fill: rgb(255, 255, 255);" transform="matrix(0.9999999999999999, 0, 0, 0.9999999999999999, -5.684341886080802e-14, -1.1368683772161603e-13)"/>
  <path fill="#2966B1" opacity="1.000000" stroke="none" d="&#10;M1749.000000,452.531311 &#10;&#9;C1748.337402,453.825287 1747.177612,454.600037 1747.087646,455.483643 &#10;&#9;C1745.972168,466.453644 1745.717529,477.561462 1743.844604,488.392242 &#10;&#9;C1741.122925,504.131378 1738.042725,519.895142 1733.684570,535.242065 &#10;&#9;C1728.611572,553.106445 1722.825806,570.872375 1715.801392,588.048035 &#10;&#9;C1709.503540,603.447083 1701.947021,618.489380 1693.420776,632.779175 &#10;&#9;C1682.801392,650.577209 1670.837402,667.594177 1659.007202,684.638428 &#10;&#9;C1653.878540,692.027527 1647.889282,698.873718 1641.833862,705.551941 &#10;&#9;C1633.694092,714.528992 1625.487427,723.506653 1616.643799,731.771973 &#10;&#9;C1596.114502,750.958984 1574.242188,768.515442 1550.045166,782.940308 &#10;&#9;C1537.572754,790.375671 1525.087280,797.889282 1512.090942,804.323608 &#10;&#9;C1489.540161,815.488220 1466.240356,824.986511 1441.736084,831.052429 &#10;&#9;C1424.497559,835.319641 1407.201782,839.461731 1389.764160,842.780090 &#10;&#9;C1379.463501,844.740112 1368.845337,845.085388 1358.354370,845.974426 &#10;&#9;C1348.827515,846.781738 1339.277344,847.907837 1329.741699,847.868469 &#10;&#9;C1317.711670,847.818848 1305.678833,846.838806 1293.661133,846.047058 &#10;&#9;C1286.604858,845.582153 1279.536743,844.969788 1272.542603,843.952332 &#10;&#9;C1259.919678,842.116150 1247.264038,840.340088 1234.772949,837.797607 &#10;&#9;C1209.575684,832.668762 1185.186279,824.597046 1161.511353,814.751526 &#10;&#9;C1140.995117,806.219482 1121.056519,796.247131 1102.459717,783.919006 &#10;&#9;C1089.700806,775.460999 1076.987915,766.912292 1064.583740,757.948669 &#10;&#9;C1057.690430,752.967407 1051.184082,747.355469 1045.008545,741.495239 &#10;&#9;C1031.507812,728.683899 1018.324280,715.538208 1005.020935,702.519104 &#10;&#9;C988.861755,686.705200 972.572754,671.020691 956.594360,655.026001 &#10;&#9;C936.483887,634.895020 916.421021,614.707886 896.735352,594.163879 &#10;&#9;C881.777710,578.554199 867.432556,562.357300 852.830872,546.407043 &#10;&#9;C842.254700,534.854004 831.717468,523.265381 821.139771,511.713715 &#10;&#9;C810.113464,499.672058 799.058289,487.656830 788.018127,475.627777 &#10;&#9;C780.328613,467.249573 772.670654,458.842224 764.950012,450.492859 &#10;&#9;C752.281982,436.793427 739.568359,423.136078 726.885803,409.450043 &#10;&#9;C718.803101,400.727844 710.690918,392.032257 702.684204,383.240753 &#10;&#9;C693.356934,372.999298 684.515808,362.280365 674.730469,352.502411 &#10;&#9;C667.673462,345.450745 659.720032,339.182587 651.629028,333.304840 &#10;&#9;C638.061218,323.448486 624.504761,313.443146 610.120728,304.883026 &#10;&#9;C596.817017,296.965851 582.496521,290.732666 568.510925,283.992065 &#10;&#9;C550.923645,275.515533 532.285522,269.965820 513.306030,265.813293 &#10;&#9;C499.903320,262.880890 486.293884,260.378204 472.646088,259.208832 &#10;&#9;C454.846008,257.683685 436.907928,256.994446 419.045990,257.228210 &#10;&#9;C406.315125,257.394836 393.616486,259.720856 380.895355,261.002594 &#10;&#9;C357.962006,263.313263 335.759583,269.085327 314.327820,277.119629 &#10;&#9;C295.073395,284.337708 276.157104,292.708344 257.777527,301.936554 &#10;&#9;C240.661362,310.530365 225.067123,321.687683 210.736145,334.661255 &#10;&#9;C185.763031,357.268951 167.064621,383.842010 156.950912,416.126099 &#10;&#9;C152.388870,430.688629 149.809677,445.727722 151.164139,460.928528 &#10;&#9;C153.027359,481.839050 160.465637,500.796783 173.223892,517.747803 &#10;&#9;C193.130692,544.196594 219.550156,560.921387 250.626160,570.946594 &#10;&#9;C253.735657,571.949768 255.391449,573.454102 256.052979,576.761963 &#10;&#9;C259.290283,592.950256 262.679382,609.109314 266.150909,625.249390 &#10;&#9;C269.337616,640.065308 273.017426,654.782104 275.895538,669.655640 &#10;&#9;C279.056458,685.990295 288.798309,696.583923 304.763519,699.867920 &#10;&#9;C314.778503,701.928040 325.977295,691.659668 325.987091,680.309448 &#10;&#9;C326.014618,648.478088 326.052307,616.646423 325.929596,584.815552 &#10;&#9;C325.912781,580.465393 326.325989,578.487610 331.751038,577.588013 &#10;&#9;C340.004150,576.219482 348.078339,573.050659 355.839172,569.735168 &#10;&#9;C359.781494,568.050964 361.736115,569.582703 363.579041,571.988770 &#10;&#9;C376.834808,589.294861 394.533997,598.628540 415.823334,602.068726 &#10;&#9;C432.838806,604.818298 448.940674,601.783447 464.028595,594.244873 &#10;&#9;C473.785614,589.369751 483.061523,583.337219 489.559601,573.996826 &#10;&#9;C492.025665,570.452026 494.753662,569.354126 499.627411,571.547058 &#10;&#9;C506.545013,574.659668 514.285828,575.944397 521.677490,578.000854 &#10;&#9;C523.371155,578.471985 525.075378,578.905273 527.001526,579.416138 &#10;&#9;C527.001526,589.328247 527.001526,598.977173 527.001465,608.626160 &#10;&#9;C527.001404,631.624756 527.225769,654.626465 526.909607,677.620667 &#10;&#9;C526.743225,689.726013 538.172913,699.804382 551.472534,696.706360 &#10;&#9;C564.468506,693.679138 574.713318,681.201294 577.118103,667.861816 &#10;&#9;C579.546326,654.391602 583.013245,641.109070 586.008728,627.740662 &#10;&#9;C590.010925,609.879822 594.089661,592.035217 597.909790,574.135437 &#10;&#9;C598.642151,570.703918 600.061401,568.969604 603.486877,567.904297 &#10;&#9;C622.805359,561.896423 639.861511,552.017029 655.094666,538.556519 &#10;&#9;C672.425598,523.242310 687.643921,506.298096 700.014832,486.726746 &#10;&#9;C703.738159,480.836304 708.440063,475.564484 712.931335,469.698975 &#10;&#9;C714.438354,471.107208 715.776062,472.292572 717.042114,473.550110 &#10;&#9;C730.638000,487.054138 744.309631,500.483490 757.784241,514.107605 &#10;&#9;C769.806946,526.263672 781.621948,538.625488 793.503113,550.921204 &#10;&#9;C802.258240,559.981750 810.926147,569.127258 819.742615,578.127563 &#10;&#9;C821.576233,579.999329 822.351074,581.426025 821.082825,584.141663 &#10;&#9;C816.860168,593.183228 813.433899,602.617676 808.875671,611.476135 &#10;&#9;C802.902344,623.084473 796.653870,634.617188 789.595093,645.584656 &#10;&#9;C780.138184,660.278076 770.717957,675.167847 759.591736,688.570129 &#10;&#9;C745.898010,705.065125 731.158630,720.847717 715.603577,735.601807 &#10;&#9;C696.696838,753.534790 675.797729,769.229553 653.535278,782.882751 &#10;&#9;C631.043030,796.676880 607.532715,808.454407 582.942261,818.193420 &#10;&#9;C556.940674,828.491211 530.159912,835.819641 502.737915,840.808289 &#10;&#9;C491.165253,842.913635 479.374756,844.128601 467.627594,844.894287 &#10;&#9;C450.614471,846.003235 433.538818,847.062805 416.512451,846.780334 &#10;&#9;C401.906586,846.538086 387.307556,844.611511 372.749542,843.025269 &#10;&#9;C342.875641,839.770203 313.993469,832.188660 285.798737,822.000183 &#10;&#9;C262.833862,813.701538 240.330154,804.267700 219.589722,791.199829 &#10;&#9;C203.454468,781.033630 187.282425,770.877869 171.688385,759.918335 &#10;&#9;C162.338837,753.347351 153.954025,745.370544 145.351212,737.781250 &#10;&#9;C138.892181,732.083252 132.354950,726.376709 126.597923,720.000916 &#10;&#9;C115.472252,707.679504 104.067085,695.475403 94.257927,682.134399 &#10;&#9;C81.820526,665.218872 69.891685,647.767395 59.542217,629.526550 &#10;&#9;C50.114746,612.910522 42.027008,595.331238 35.293652,577.444397 &#10;&#9;C27.907518,557.823547 22.181835,537.514099 16.824471,517.216492 &#10;&#9;C13.497890,504.612946 11.755013,491.530151 10.118184,478.559418 &#10;&#9;C8.531405,465.985260 7.516737,453.294525 7.108927,440.627380 &#10;&#9;C6.609653,425.119202 6.104599,409.518005 7.210791,394.072235 &#10;&#9;C9.092948,367.791656 13.144770,341.719452 20.127892,316.267487 &#10;&#9;C26.094080,294.522034 32.828239,272.949371 42.813000,252.639755 &#10;&#9;C51.182133,235.616409 59.423782,218.452194 69.118973,202.182907 &#10;&#9;C77.363167,188.348495 87.530197,175.651199 96.973091,162.541992 &#10;&#9;C109.587654,145.029694 124.798149,129.800613 140.543427,115.235062 &#10;&#9;C153.268082,103.463821 166.878174,92.580994 180.647568,82.024170 &#10;&#9;C200.718796,66.635834 222.691498,54.265026 245.418304,43.201481 &#10;&#9;C272.423401,30.055237 300.522400,19.918085 329.743134,13.127344 &#10;&#9;C345.471405,9.472172 361.450409,6.863095 377.366699,4.069471 &#10;&#9;C382.208527,3.219639 387.224152,3.390808 392.148193,2.958364 &#10;&#9;C393.517426,2.838114 394.843872,2.230716 396.094971,1.423405 &#10;&#9;C418.020905,1.000000 440.041779,1.000000 462.487732,1.426314 &#10;&#9;C463.750671,2.230481 464.560181,2.845088 465.430908,2.949612 &#10;&#9;C474.232635,4.006220 483.167328,4.365254 491.828735,6.098915 &#10;&#9;C512.294128,10.195274 532.929810,13.896505 552.948669,19.660503 &#10;&#9;C581.880554,27.990808 609.386108,40.221214 635.957214,54.458015 &#10;&#9;C671.417358,73.457535 703.079590,97.307350 729.947815,127.392151 &#10;&#9;C740.709167,139.441818 751.839355,151.161545 762.636658,163.179672 &#10;&#9;C775.716309,177.738312 788.672241,192.409134 801.586182,207.115341 &#10;&#9;C812.550720,219.601685 823.416199,232.175766 834.259277,244.768036 &#10;&#9;C848.287720,261.059448 862.292419,277.371674 876.228943,293.741699 &#10;&#9;C888.980347,308.719696 901.389038,323.996460 914.385437,338.756989 &#10;&#9;C928.223938,354.473724 942.577759,369.736633 956.701538,385.202271 &#10;&#9;C963.581543,392.735901 970.434570,400.294281 977.327209,407.816254 &#10;&#9;C992.151855,423.994568 1007.001770,440.149719 1021.825806,456.328522 &#10;&#9;C1028.732666,463.866669 1035.553101,471.484650 1042.501343,478.984222 &#10;&#9;C1055.957031,493.507355 1069.432129,508.012787 1082.984619,522.445496 &#10;&#9;C1090.696045,530.657837 1098.657715,538.635559 1106.355225,546.860718 &#10;&#9;C1112.769287,553.714661 1118.770630,560.960938 1125.291870,567.707581 &#10;&#9;C1141.243652,584.210876 1157.010498,600.922607 1173.582031,616.787598 &#10;&#9;C1186.281128,628.945129 1201.260010,638.401917 1217.139038,645.806030 &#10;&#9;C1231.772095,652.629272 1247.000122,658.348389 1262.330688,663.460632 &#10;&#9;C1281.586426,669.881775 1301.731445,672.277771 1321.939941,672.822266 &#10;&#9;C1333.607666,673.136658 1345.336914,671.857056 1357.013672,670.969849 &#10;&#9;C1372.906860,669.762390 1388.206421,665.738953 1403.391968,661.010254 &#10;&#9;C1433.464233,651.645935 1460.731201,636.965881 1484.537476,616.564636 &#10;&#9;C1497.264160,605.658203 1508.702759,593.095520 1519.784790,580.458008 &#10;&#9;C1537.904785,559.794495 1550.167114,535.580627 1559.494995,509.877991 &#10;&#9;C1565.988159,491.986115 1569.874268,473.507751 1572.193115,454.573364 &#10;&#9;C1574.237915,437.876740 1574.906128,421.186798 1572.739014,404.632233 &#10;&#9;C1570.752319,389.456116 1567.739014,374.307983 1563.779419,359.522064 &#10;&#9;C1558.134277,338.440613 1549.188477,318.581116 1537.548462,300.056091 &#10;&#9;C1525.311279,280.580841 1511.585449,262.273621 1493.795288,247.423111 &#10;&#9;C1484.618774,239.763046 1475.489746,231.972794 1465.741943,225.087128 &#10;&#9;C1450.217285,214.120956 1433.321533,205.564194 1415.512573,198.818558 &#10;&#9;C1390.977173,189.525162 1365.590820,184.304077 1339.430420,183.108124 &#10;&#9;C1331.524536,182.746689 1323.501587,183.175171 1315.636230,184.113586 &#10;&#9;C1303.645752,185.544144 1291.600708,187.092651 1279.841919,189.753479 &#10;&#9;C1262.950073,193.575867 1246.895630,199.603836 1231.987671,208.941849 &#10;&#9;C1214.327148,220.003937 1197.999634,232.223999 1185.355103,249.075317 &#10;&#9;C1165.154175,275.997009 1158.077515,306.286682 1160.942993,339.397797 &#10;&#9;C1161.404297,344.727448 1161.007812,350.131348 1161.007812,356.395813 &#10;&#9;C1151.661377,355.953735 1141.747192,355.770691 1131.885376,354.956329 &#10;&#9;C1113.689819,353.453766 1099.923706,344.418762 1089.729492,329.450043 &#10;&#9;C1079.108398,313.854340 1071.782104,296.819061 1066.817383,278.684784 &#10;&#9;C1065.988281,275.656342 1064.801636,272.725800 1063.307861,268.374023 &#10;&#9;C1044.074463,318.686066 1009.591797,341.288361 955.897949,330.960144 &#10;&#9;C955.297546,324.493378 953.935669,317.470001 954.166504,310.499390 &#10;&#9;C954.503357,300.330841 955.847656,290.184448 957.009094,280.056885 &#10;&#9;C959.124573,261.609985 964.638367,243.920273 971.707825,226.981094 &#10;&#9;C978.860840,209.841721 987.769287,193.386307 996.627197,177.020126 &#10;&#9;C1006.472351,158.829834 1019.392822,142.690826 1033.240967,127.440102 &#10;&#9;C1042.027466,117.763924 1051.817993,108.968552 1061.463623,100.110794 &#10;&#9;C1076.422729,86.373428 1092.660522,74.336060 1109.848389,63.440948 &#10;&#9;C1136.678467,46.433903 1164.927002,32.586815 1195.031250,22.447779 &#10;&#9;C1215.369019,15.598115 1235.980347,9.888391 1257.278320,7.017607 &#10;&#9;C1268.992676,5.438618 1280.773193,4.352754 1292.507935,2.915156 &#10;&#9;C1293.403442,2.805459 1294.172363,1.662641 1295.000000,1.000019 &#10;&#9;C1313.354248,1.000000 1331.708496,1.000000 1350.450439,1.426731 &#10;&#9;C1352.182007,2.235065 1353.506104,2.841064 1354.872925,2.961666 &#10;&#9;C1363.411987,3.715087 1372.032104,3.878575 1380.491577,5.136819 &#10;&#9;C1400.835815,8.162749 1420.978149,12.083437 1440.838013,17.728312 &#10;&#9;C1462.725586,23.949558 1483.965820,31.725487 1504.546509,41.279003 &#10;&#9;C1529.561768,52.891064 1553.478516,66.614586 1575.367920,83.360809 &#10;&#9;C1592.149414,96.199326 1607.912476,110.398026 1623.785278,124.381454 &#10;&#9;C1629.961060,129.822159 1635.367676,136.180420 1640.815674,142.391724 &#10;&#9;C1648.059692,150.650970 1655.521118,158.798935 1661.949463,167.675201 &#10;&#9;C1671.112915,180.327850 1680.148682,193.181763 1687.914551,206.709930 &#10;&#9;C1697.623047,223.621933 1706.866089,240.921204 1714.671753,258.769745 &#10;&#9;C1721.709961,274.862885 1727.111816,291.750580 1732.162354,308.609314 &#10;&#9;C1736.265747,322.306763 1739.406738,336.372955 1741.822754,350.472961 &#10;&#9;C1744.287476,364.856659 1745.321655,379.484222 1747.094604,393.991211 &#10;&#9;C1747.184692,394.727448 1748.340454,395.333374 1749.000000,396.000000 &#10;&#9;C1749.000000,414.687561 1749.000000,433.375122 1749.000000,452.531311 &#10;M570.456909,195.054153 &#10;&#9;C566.699158,203.165817 564.192749,211.287323 565.890137,220.600067 &#10;&#9;C569.877563,242.477753 591.815796,256.970551 612.499512,251.963409 &#10;&#9;C633.561890,246.864563 646.781372,226.098969 642.021423,205.975571 &#10;&#9;C637.889160,188.505295 624.099854,176.335892 606.745056,175.233505 &#10;&#9;C591.386597,174.257919 579.087341,181.020477 570.456909,195.054153 &#10;M288.998749,216.310837 &#10;&#9;C289.601746,203.530045 284.901825,193.093536 275.247131,184.748383 &#10;&#9;C264.765808,175.688721 252.795883,172.915070 239.626907,176.854843 &#10;&#9;C220.770691,182.496078 210.413910,198.398102 211.991852,218.351395 &#10;&#9;C213.840073,241.722122 237.955872,257.035522 258.468750,251.988327 &#10;&#9;C276.412933,247.573166 287.203613,233.585510 288.998749,216.310837 &#10;z" transform="matrix(0.9999999999999999, 0, 0, 0.9999999999999999, -5.684341886080802e-14, -1.1368683772161603e-13)"/>
  <path opacity="1.000000" stroke="none" d="&#10;M1294.531372,1.000019 &#10;&#9;C1294.172363,1.662641 1293.403442,2.805459 1292.507935,2.915156 &#10;&#9;C1280.773193,4.352754 1268.992676,5.438618 1257.278320,7.017607 &#10;&#9;C1235.980347,9.888391 1215.369019,15.598115 1195.031250,22.447779 &#10;&#9;C1164.927002,32.586815 1136.678467,46.433903 1109.848389,63.440948 &#10;&#9;C1092.660522,74.336060 1076.422729,86.373428 1061.463623,100.110794 &#10;&#9;C1051.817993,108.968552 1042.027466,117.763924 1033.240967,127.440102 &#10;&#9;C1019.392822,142.690826 1006.472351,158.829834 996.627197,177.020126 &#10;&#9;C987.769287,193.386307 978.860840,209.841721 971.707825,226.981094 &#10;&#9;C964.638367,243.920273 959.124573,261.609985 957.009094,280.056885 &#10;&#9;C955.847656,290.184448 954.503357,300.330841 954.166504,310.499390 &#10;&#9;C953.935669,317.470001 955.297546,324.493378 955.897949,330.960144 &#10;&#9;C1009.591797,341.288361 1044.074463,318.686066 1063.307861,268.374023 &#10;&#9;C1064.801636,272.725800 1065.988281,275.656342 1066.817383,278.684784 &#10;&#9;C1071.782104,296.819061 1079.108398,313.854340 1089.729492,329.450043 &#10;&#9;C1099.923706,344.418762 1113.689819,353.453766 1131.885376,354.956329 &#10;&#9;C1141.747192,355.770691 1151.661377,355.953735 1161.007812,356.395813 &#10;&#9;C1161.007812,350.131348 1161.404297,344.727448 1160.942993,339.397797 &#10;&#9;C1158.077515,306.286682 1165.154175,275.997009 1185.355103,249.075317 &#10;&#9;C1197.999634,232.223999 1214.327148,220.003937 1231.987671,208.941849 &#10;&#9;C1246.895630,199.603836 1262.950073,193.575867 1279.841919,189.753479 &#10;&#9;C1291.600708,187.092651 1303.645752,185.544144 1315.636230,184.113586 &#10;&#9;C1323.501587,183.175171 1331.524536,182.746689 1339.430420,183.108124 &#10;&#9;C1365.590820,184.304077 1390.977173,189.525162 1415.512573,198.818558 &#10;&#9;C1433.321533,205.564194 1450.217285,214.120956 1465.741943,225.087128 &#10;&#9;C1475.489746,231.972794 1484.618774,239.763046 1493.795288,247.423111 &#10;&#9;C1511.585449,262.273621 1525.311279,280.580841 1537.548462,300.056091 &#10;&#9;C1549.188477,318.581116 1558.134277,338.440613 1563.779419,359.522064 &#10;&#9;C1567.739014,374.307983 1570.752319,389.456116 1572.739014,404.632233 &#10;&#9;C1574.906128,421.186798 1574.237915,437.876740 1572.193115,454.573364 &#10;&#9;C1569.874268,473.507751 1565.988159,491.986115 1559.494995,509.877991 &#10;&#9;C1550.167114,535.580627 1537.904785,559.794495 1519.784790,580.458008 &#10;&#9;C1508.702759,593.095520 1497.264160,605.658203 1484.537476,616.564636 &#10;&#9;C1460.731201,636.965881 1433.464233,651.645935 1403.391968,661.010254 &#10;&#9;C1388.206421,665.738953 1372.906860,669.762390 1357.013672,670.969849 &#10;&#9;C1345.336914,671.857056 1333.607666,673.136658 1321.939941,672.822266 &#10;&#9;C1301.731445,672.277771 1281.586426,669.881775 1262.330688,663.460632 &#10;&#9;C1247.000122,658.348389 1231.772095,652.629272 1217.139038,645.806030 &#10;&#9;C1201.260010,638.401917 1186.281128,628.945129 1173.582031,616.787598 &#10;&#9;C1157.010498,600.922607 1141.243652,584.210876 1125.291870,567.707581 &#10;&#9;C1118.770630,560.960938 1112.769287,553.714661 1106.355225,546.860718 &#10;&#9;C1098.657715,538.635559 1090.696045,530.657837 1082.984619,522.445496 &#10;&#9;C1069.432129,508.012787 1055.957031,493.507355 1042.501343,478.984222 &#10;&#9;C1035.553101,471.484650 1028.732666,463.866669 1021.825806,456.328522 &#10;&#9;C1007.001770,440.149719 992.151855,423.994568 977.327209,407.816254 &#10;&#9;C970.434570,400.294281 963.581543,392.735901 956.701538,385.202271 &#10;&#9;C942.577759,369.736633 928.223938,354.473724 914.385437,338.756989 &#10;&#9;C901.389038,323.996460 888.980347,308.719696 876.228943,293.741699 &#10;&#9;C862.292419,277.371674 848.287720,261.059448 834.259277,244.768036 &#10;&#9;C823.416199,232.175766 812.550720,219.601685 801.586182,207.115341 &#10;&#9;C788.672241,192.409134 775.716309,177.738312 762.636658,163.179672 &#10;&#9;C751.839355,151.161545 740.709167,139.441818 729.947815,127.392151 &#10;&#9;C703.079590,97.307350 671.417358,73.457535 635.957214,54.458015 &#10;&#9;C609.386108,40.221214 581.880554,27.990808 552.948669,19.660503 &#10;&#9;C532.929810,13.896505 512.294128,10.195274 491.828735,6.098915 &#10;&#9;C483.167328,4.365254 474.232635,4.006220 465.430908,2.949612 &#10;&#9;C464.560181,2.845088 463.750671,2.230481 462.956360,1.426314 &#10;&#9;C740.020935,1.000000 1017.041809,1.000000 1294.531372,1.000019 &#10;z" style="fill: rgb(255, 255, 255);" transform="matrix(0.9999999999999999, 0, 0, 0.9999999999999999, -5.684341886080802e-14, -1.1368683772161603e-13)"/>
  <path fill="#131F3D" opacity="1.000000" stroke="none" d="M 1 1014.469 C 4.28 1009.524 7.282 1004.809 10.891 1000.617 C 22.676 986.926 47.454 988.313 60.692 999.925 C 70.22 1008.284 72.705 1019.29 75.018 1030.744 C 83.06 1070.573 91.205 1110.381 99.35 1150.19 C 104.868 1177.156 110.435 1204.114 116.021 1231.067 C 117.396 1237.699 118.932 1244.298 121.23 1251.133 C 122.063 1248.42 122.954 1245.722 123.72 1242.99 C 131.469 1215.354 139.147 1187.698 146.948 1160.076 C 152.314 1141.075 157.852 1122.123 163.295 1103.143 C 167.912 1087.047 172.413 1070.916 177.136 1054.85 C 180.776 1042.469 183.431 1029.592 188.776 1017.971 C 195.847 1002.6 208.942 993.795 226.154 992 C 237.666 990.799 248.423 993.463 258.098 999.561 C 268.203 1005.931 274.539 1015.605 277.857 1026.827 C 286.417 1055.77 294.525 1084.846 302.718 1113.897 C 309.559 1138.156 316.241 1162.46 323.036 1186.733 C 328.762 1207.187 334.544 1227.626 340.332 1248.063 C 340.589 1248.973 341.157 1249.796 342.226 1251.976 C 344.187 1242.885 345.897 1235.074 347.554 1227.252 C 353.502 1199.183 359.468 1171.118 365.359 1143.037 C 371.93 1111.721 378.408 1080.385 384.965 1049.066 C 386.937 1039.65 388.738 1030.184 391.148 1020.878 C 395.766 1003.05 407.603 992.642 425.701 990.379 C 441.601 988.39 454.546 994.321 464.163 1007.471 C 471.864 1017.999 472.938 1029.913 470.136 1041.729 C 460.093 1084.083 449.387 1126.282 438.808 1168.509 C 427.278 1214.533 415.77 1260.565 403.93 1306.51 C 398.738 1326.658 385.534 1339.877 366.186 1347.149 C 364.511 1347.778 362.916 1348.619 361.142 1349.681 C 351.979 1350 342.958 1350 333.33 1349.68 C 331.274 1348.621 329.889 1347.694 328.365 1347.173 C 313.131 1341.972 300.64 1333.123 293.793 1318.311 C 289.301 1308.594 286.096 1298.218 283.016 1287.926 C 275.267 1262.033 267.936 1236.015 260.4 1210.057 C 253.509 1186.324 246.588 1162.6 239.641 1138.884 C 237.103 1130.221 234.449 1121.591 231.849 1112.946 C 227.253 1125.286 223.642 1137.649 220.061 1150.021 C 212.912 1174.718 205.783 1199.421 198.64 1224.12 C 191.173 1249.938 183.381 1275.666 176.331 1301.597 C 170.913 1321.528 153.339 1338.482 134.391 1347.214 C 131.312 1348.633 121.112 1350.263 103.134 1349.084 C 59.508 1349.084 48.841 1289.565 48.908 1289.52 C 50.098 1289.59 1 1126.625 1 1014.469 Z" transform="matrix(0.9999999999999999, 0, 0, 0.9999999999999999, -5.684341886080802e-14, -1.1368683772161603e-13)"/>
  <path fill="#152344" opacity="1.000000" stroke="none" d="&#10;M737.458069,1350.000000 &#10;&#9;C736.288635,1349.392456 735.668579,1348.448242 734.852478,1348.226807 &#10;&#9;C717.559204,1343.536743 708.123230,1331.389893 707.988892,1313.549561 &#10;&#9;C707.976746,1311.935913 707.833374,1310.323364 707.717468,1308.054688 &#10;&#9;C701.022766,1313.390991 694.937561,1318.366089 688.720886,1323.171265 &#10;&#9;C674.810547,1333.923462 659.026794,1340.563477 641.865967,1343.979980 &#10;&#9;C614.219238,1349.484253 587.698730,1345.911133 562.688538,1332.989502 &#10;&#9;C550.274353,1326.575684 539.526611,1317.773438 529.756958,1307.658691 &#10;&#9;C515.181274,1292.567871 504.531464,1275.089233 497.904846,1255.376099 &#10;&#9;C494.289001,1244.619629 491.984711,1233.325317 490.148285,1222.100220 &#10;&#9;C488.846130,1214.140991 489.054291,1205.891968 489.047546,1197.771851 &#10;&#9;C489.030334,1177.066528 493.736053,1157.406738 502.582153,1138.684937 &#10;&#9;C509.455475,1124.138306 518.734741,1111.276855 530.250610,1100.182373 &#10;&#9;C548.926086,1082.190308 571.554932,1071.118408 596.930664,1067.227417 &#10;&#9;C631.749634,1061.888062 663.905396,1069.635620 692.044250,1091.529785 &#10;&#9;C697.239319,1095.571899 701.884338,1100.320801 706.803284,1104.761719 &#10;&#9;C708.252991,1099.935059 709.012451,1094.985229 711.146118,1090.723389 &#10;&#9;C720.245300,1072.548706 742.893188,1065.066284 760.693237,1076.444702 &#10;&#9;C771.120117,1083.109863 777.080566,1092.398926 777.057922,1105.335938 &#10;&#9;C776.936523,1174.809082 776.649048,1244.285645 777.280823,1313.753296 &#10;&#9;C777.416138,1328.636353 765.210266,1345.117065 750.826599,1348.048706 &#10;&#9;C749.921082,1348.233398 749.112732,1348.894653 748.129578,1349.666992 &#10;&#9;C744.638733,1350.000000 741.277405,1350.000000 737.458069,1350.000000 &#10;M680.500000,1147.077271 &#10;&#9;C678.588318,1145.494873 676.827393,1143.670532 674.740173,1142.369873 &#10;&#9;C662.604004,1134.807251 649.738464,1130.379028 635.061951,1129.947388 &#10;&#9;C607.560852,1129.138550 586.639832,1141.077026 571.624146,1162.659180 &#10;&#9;C552.697815,1189.862305 554.053772,1225.680908 576.636108,1251.780762 &#10;&#9;C595.189331,1273.223877 619.191284,1281.980591 647.289612,1276.702759 &#10;&#9;C673.073486,1271.859985 691.043518,1256.532959 701.519470,1232.605347 &#10;&#9;C706.646729,1220.894531 708.871094,1208.690186 707.068115,1195.736328 &#10;&#9;C704.365051,1176.315674 696.203308,1160.034058 680.500000,1147.077271 &#10;z" transform="matrix(0.9999999999999999, 0, 0, 0.9999999999999999, -5.684341886080802e-14, -1.1368683772161603e-13)"/>
  <path fill="#152344" opacity="1.000000" stroke="none" d="&#10;M1394.468628,1350.000000 &#10;&#9;C1392.576416,1348.994141 1391.261475,1347.762451 1389.712158,1347.018433 &#10;&#9;C1377.642212,1341.220825 1370.459473,1331.703735 1367.813232,1318.654053 &#10;&#9;C1367.715698,1318.173218 1367.555786,1317.694336 1367.350342,1317.248779 &#10;&#9;C1367.073853,1316.648926 1366.724854,1316.082642 1366.274658,1315.260254 &#10;&#9;C1360.826294,1319.011353 1355.493164,1322.812988 1350.030762,1326.418579 &#10;&#9;C1335.610352,1335.937256 1320.197388,1343.219360 1303.064819,1346.277100 &#10;&#9;C1280.442993,1350.314453 1258.492188,1348.089966 1237.170898,1339.228638 &#10;&#9;C1226.100342,1334.627930 1216.401978,1328.232544 1208.085205,1319.653564 &#10;&#9;C1196.759399,1307.970825 1189.954346,1293.933838 1187.134766,1278.053833 &#10;&#9;C1185.865356,1270.904419 1185.113037,1263.564819 1185.088745,1256.308472 &#10;&#9;C1184.918701,1205.312134 1185.024902,1154.314941 1184.983887,1103.318115 &#10;&#9;C1184.972534,1089.190552 1191.786987,1079.384644 1203.957031,1073.017090 &#10;&#9;C1216.455200,1066.477905 1228.935303,1067.483276 1240.282349,1075.262451 &#10;&#9;C1250.900635,1082.541992 1256.078125,1093.289917 1256.072876,1106.352051 &#10;&#9;C1256.054688,1151.015991 1256.247559,1195.681030 1255.960571,1240.343018 &#10;&#9;C1255.868408,1254.670410 1266.016846,1269.627319 1280.660156,1274.960693 &#10;&#9;C1297.289307,1281.017456 1314.174805,1281.972534 1331.069092,1277.758667 &#10;&#9;C1346.906494,1273.808472 1357.636597,1263.643066 1362.877319,1247.770264 &#10;&#9;C1366.110107,1237.979370 1367.057495,1228.077759 1367.011108,1217.862183 &#10;&#9;C1366.853027,1183.031738 1367.212158,1148.197388 1366.857788,1113.369873 &#10;&#9;C1366.623901,1090.374268 1381.636475,1072.835693 1405.028076,1071.172363 &#10;&#9;C1424.925659,1069.757568 1445.945068,1086.642822 1445.974243,1108.154663 &#10;&#9;C1446.065430,1175.483643 1445.936279,1242.813110 1446.048706,1310.141968 &#10;&#9;C1446.077515,1327.454590 1438.322021,1339.538696 1422.961670,1347.062866 &#10;&#9;C1421.649414,1347.705444 1420.448853,1348.576050 1419.098145,1349.670410 &#10;&#9;C1410.979126,1350.000000 1402.958130,1350.000000 1394.468628,1350.000000 &#10;z" transform="matrix(0.9999999999999999, 0, 0, 0.9999999999999999, -5.684341886080802e-14, -1.1368683772161603e-13)"/>
  <path opacity="1.000000" stroke="none" d="&#10;M1749.000000,395.531311 &#10;&#9;C1748.340454,395.333374 1747.184692,394.727448 1747.094604,393.991211 &#10;&#9;C1745.321655,379.484222 1744.287476,364.856659 1741.822754,350.472961 &#10;&#9;C1739.406738,336.372955 1736.265747,322.306763 1732.162354,308.609314 &#10;&#9;C1727.111816,291.750580 1721.709961,274.862885 1714.671753,258.769745 &#10;&#9;C1706.866089,240.921204 1697.623047,223.621933 1687.914551,206.709930 &#10;&#9;C1680.148682,193.181763 1671.112915,180.327850 1661.949463,167.675201 &#10;&#9;C1655.521118,158.798935 1648.059692,150.650970 1640.815674,142.391724 &#10;&#9;C1635.367676,136.180420 1629.961060,129.822159 1623.785278,124.381454 &#10;&#9;C1607.912476,110.398026 1592.149414,96.199326 1575.367920,83.360809 &#10;&#9;C1553.478516,66.614586 1529.561768,52.891064 1504.546509,41.279003 &#10;&#9;C1483.965820,31.725487 1462.725586,23.949558 1440.838013,17.728312 &#10;&#9;C1420.978149,12.083437 1400.835815,8.162749 1380.491577,5.136819 &#10;&#9;C1372.032104,3.878575 1363.411987,3.715087 1354.872925,2.961666 &#10;&#9;C1353.506104,2.841064 1352.182007,2.235065 1350.919067,1.426731 &#10;&#9;C1483.593506,1.000000 1616.186890,1.000000 1749.000000,1.000000 &#10;&#9;C1749.000000,132.354141 1749.000000,263.708405 1749.000000,395.531311 &#10;z" style="fill: rgb(255, 255, 255);" transform="matrix(0.9999999999999999, 0, 0, 0.9999999999999999, -5.684341886080802e-14, -1.1368683772161603e-13)"/>
  <path opacity="1.000000" stroke="none" d="&#10;M132.468643,1350.000000 &#10;&#9;C134.984680,1348.375488 137.888046,1346.574463 140.967331,1345.155273 &#10;&#9;C159.915390,1336.422729 170.912628,1321.528320 176.331100,1301.596924 &#10;&#9;C183.380524,1275.666260 191.173050,1249.937500 198.639816,1224.120117 &#10;&#9;C205.783142,1199.421143 212.911835,1174.718018 220.060684,1150.020630 &#10;&#9;C223.641754,1137.648926 227.253418,1125.286011 231.848572,1112.946167 &#10;&#9;C234.449310,1121.591064 237.102783,1130.220581 239.640701,1138.883911 &#10;&#9;C246.588409,1162.600342 253.509369,1186.324463 260.399963,1210.057495 &#10;&#9;C267.936249,1236.014526 275.267029,1262.032837 283.015778,1287.926147 &#10;&#9;C286.095551,1298.217529 289.301300,1308.594360 293.792999,1318.311401 &#10;&#9;C300.639801,1333.122925 313.130737,1341.972046 328.365173,1347.173462 &#10;&#9;C329.888947,1347.693970 331.273773,1348.621216 332.861542,1349.679932 &#10;&#9;C266.312439,1350.000000 199.624878,1350.000000 132.468643,1350.000000 &#10;z" style="fill: rgb(255, 255, 255);" transform="matrix(0.9999999999999999, 0, 0, 0.9999999999999999, -5.684341886080802e-14, -1.1368683772161603e-13)"/>
  <path fill="#152344" opacity="1.000000" stroke="none" d="&#10;M1702.697021,1090.220947 &#10;&#9;C1716.854858,1100.172485 1728.000732,1112.362183 1733.561279,1128.491089 &#10;&#9;C1739.443481,1145.552979 1729.426880,1159.717529 1713.363159,1163.938599 &#10;&#9;C1698.318726,1167.891846 1687.182373,1161.152588 1678.747192,1149.930298 &#10;&#9;C1665.380615,1132.146973 1647.591187,1124.422119 1625.970337,1124.051270 &#10;&#9;C1613.940796,1123.844727 1602.103760,1124.630493 1591.196167,1130.616821 &#10;&#9;C1582.020630,1135.652466 1576.356934,1147.036621 1579.511108,1156.825195 &#10;&#9;C1580.595337,1160.190552 1584.017212,1164.032104 1587.271484,1165.248779 &#10;&#9;C1599.187012,1169.704224 1611.311401,1173.859497 1623.671509,1176.810425 &#10;&#9;C1644.798340,1181.854370 1666.273804,1185.532593 1686.466797,1193.922241 &#10;&#9;C1704.678833,1201.488770 1721.222290,1211.426758 1732.084839,1228.601318 &#10;&#9;C1738.489136,1238.726807 1741.765991,1249.859741 1742.085327,1261.971069 &#10;&#9;C1742.431152,1275.088379 1741.229858,1287.825806 1735.694092,1299.902954 &#10;&#9;C1726.919434,1319.046875 1711.450806,1330.525635 1692.326660,1337.817261 &#10;&#9;C1674.809570,1344.495850 1656.727905,1348.162720 1637.923828,1348.010010 &#10;&#9;C1630.425415,1347.949097 1622.926147,1347.990723 1615.427246,1348.001587 &#10;&#9;C1584.220581,1348.046997 1555.841309,1338.791748 1530.530029,1320.859985 &#10;&#9;C1517.687134,1311.761597 1506.726685,1300.084473 1501.575684,1284.977295 &#10;&#9;C1495.677124,1267.677734 1502.244507,1251.641602 1522.739990,1248.416016 &#10;&#9;C1528.017090,1247.585449 1534.742188,1250.313599 1539.538086,1253.382202 &#10;&#9;C1546.850586,1258.060547 1553.383789,1264.126099 1559.674316,1270.197021 &#10;&#9;C1572.671265,1282.739990 1587.052002,1292.634277 1605.115479,1296.152710 &#10;&#9;C1617.940796,1298.650879 1630.880371,1298.907349 1643.776367,1297.031372 &#10;&#9;C1650.605103,1296.037964 1657.457397,1294.652344 1664.031128,1292.589600 &#10;&#9;C1674.144775,1289.416016 1679.843018,1281.347534 1679.978149,1271.405396 &#10;&#9;C1680.117065,1261.196167 1674.649170,1252.542847 1664.366211,1249.509155 &#10;&#9;C1647.539307,1244.544678 1630.514404,1240.185059 1613.433228,1236.164185 &#10;&#9;C1587.620850,1230.087891 1561.440552,1225.330322 1537.587402,1212.911621 &#10;&#9;C1524.442993,1206.068115 1513.449951,1196.958252 1507.499512,1182.982056 &#10;&#9;C1502.964478,1172.330078 1500.700562,1161.164551 1502.836426,1149.591675 &#10;&#9;C1504.179199,1142.316895 1505.568481,1134.934326 1508.084595,1128.017456 &#10;&#9;C1512.855347,1114.901978 1522.057861,1105.111206 1533.143677,1096.777954 &#10;&#9;C1554.322144,1080.857788 1578.522217,1073.103271 1604.395508,1069.984009 &#10;&#9;C1628.605591,1067.065308 1652.461060,1069.647095 1675.511841,1077.395020 &#10;&#9;C1684.833374,1080.528198 1693.452759,1085.750122 1702.697021,1090.220947 &#10;z" transform="matrix(0.9999999999999999, 0, 0, 0.9999999999999999, -5.684341886080802e-14, -1.1368683772161603e-13)"/>
  <path fill="#152344" opacity="1.000000" stroke="none" d="&#10;M908.024170,1255.000000 &#10;&#9;C908.028992,1275.165405 908.012573,1294.830933 908.045105,1314.496338 &#10;&#9;C908.073303,1331.565308 892.024109,1347.563843 874.949280,1348.099365 &#10;&#9;C864.845703,1348.416260 855.800720,1346.236328 848.239990,1339.473755 &#10;&#9;C841.748413,1333.667480 837.087646,1326.473022 837.077759,1317.541870 &#10;&#9;C836.960327,1211.214966 836.992310,1104.887939 837.017029,998.560913 &#10;&#9;C837.019592,987.429749 846.760681,974.693359 858.768188,970.207275 &#10;&#9;C883.053345,961.134216 908.164429,978.082825 908.098328,1004.015076 &#10;&#9;C907.885437,1087.509521 908.022156,1171.005005 908.024170,1255.000000 &#10;z" transform="matrix(0.9999999999999999, 0, 0, 0.9999999999999999, -5.684341886080802e-14, -1.1368683772161603e-13)"/>
  <path fill="#152344" opacity="1.000000" stroke="none" d="&#10;M954.994995,1184.000000 &#10;&#9;C954.984192,1155.837891 954.581604,1128.168457 955.099548,1100.516235 &#10;&#9;C955.448730,1081.875488 971.205383,1065.619995 990.369690,1064.869873 &#10;&#9;C1009.353210,1064.126709 1024.421631,1075.498779 1029.092163,1092.760498 &#10;&#9;C1029.687500,1094.961304 1029.965576,1097.316040 1029.967041,1099.599609 &#10;&#9;C1030.011108,1168.255127 1029.783936,1236.911865 1030.165527,1305.565308 &#10;&#9;C1030.252808,1321.263306 1019.341370,1337.981812 1002.026733,1341.867432 &#10;&#9;C988.675232,1344.863770 976.929871,1342.181641 966.764038,1332.419800 &#10;&#9;C958.399048,1324.387207 954.899231,1314.883911 954.939575,1303.480347 &#10;&#9;C955.079956,1263.820679 954.994568,1224.160156 954.994995,1184.000000 &#10;z" transform="matrix(0.9999999999999999, 0, 0, 0.9999999999999999, -5.684341886080802e-14, -1.1368683772161603e-13)"/>
  <path fill="#2966B1" opacity="1.000000" stroke="none" d="&#10;M446.152191,341.924316 &#10;&#9;C461.781311,344.781860 479.064972,354.540039 482.568909,370.905029 &#10;&#9;C484.496338,379.906982 479.753174,393.325195 472.579712,398.829834 &#10;&#9;C457.405823,410.473663 440.028656,414.352356 421.497589,412.838409 &#10;&#9;C407.008301,411.654633 393.210388,407.730103 382.402954,396.924927 &#10;&#9;C369.464417,383.988983 371.214874,362.735931 387.299652,351.826813 &#10;&#9;C405.373016,339.568970 424.965942,337.640656 446.152191,341.924316 &#10;z" transform="matrix(0.9999999999999999, 0, 0, 0.9999999999999999, -5.684341886080802e-14, -1.1368683772161603e-13)"/>
  <path fill="#152344" opacity="1.000000" stroke="none" d="&#10;M1090.996216,1069.912354 &#10;&#9;C1103.581787,1065.372803 1115.672241,1065.368896 1126.772461,1072.436157 &#10;&#9;C1140.023682,1080.873047 1145.929688,1093.653320 1143.820923,1109.067627 &#10;&#9;C1142.043335,1122.060913 1133.551880,1130.435425 1121.632202,1135.746948 &#10;&#9;C1098.015137,1146.270508 1073.192627,1148.978271 1047.704590,1148.012085 &#10;&#9;C1044.713867,1147.898560 1043.213135,1146.990723 1042.980957,1143.708008 &#10;&#9;C1041.788330,1126.840576 1044.165771,1110.810547 1054.170532,1096.705078 &#10;&#9;C1063.314453,1083.813110 1075.036133,1074.219971 1090.996216,1069.912354 &#10;z" transform="matrix(0.9999999999999999, 0, 0, 0.9999999999999999, -5.684341886080802e-14, -1.1368683772161603e-13)"/>
  <path fill="#2966B1" opacity="1.000000" stroke="none" d="&#10;M440.315918,522.597046 &#10;&#9;C450.395294,533.612061 460.303497,544.302307 470.277069,555.062988 &#10;&#9;C449.649323,580.590393 405.604279,581.728882 383.476257,552.715942 &#10;&#9;C391.051880,544.234070 398.975525,536.167908 405.934998,527.341492 &#10;&#9;C412.737183,518.714600 418.555664,509.311920 424.869904,500.157043 &#10;&#9;C429.910767,507.455322 435.027740,514.863831 440.315918,522.597046 &#10;z" transform="matrix(0.9999999999999999, 0, 0, 0.9999999999999999, -5.684341886080802e-14, -1.1368683772161603e-13)"/>
  <path opacity="1.000000" stroke="none" d="&#10;M570.676514,194.748474 &#10;&#9;C579.087341,181.020477 591.386597,174.257919 606.745056,175.233505 &#10;&#9;C624.099854,176.335892 637.889160,188.505295 642.021423,205.975571 &#10;&#9;C646.781372,226.098969 633.561890,246.864563 612.499512,251.963409 &#10;&#9;C591.815796,256.970551 569.877563,242.477753 565.890137,220.600067 &#10;&#9;C564.192749,211.287323 566.699158,203.165817 570.676514,194.748474 &#10;z" style="fill: rgb(255, 255, 255);" transform="matrix(0.9999999999999999, 0, 0, 0.9999999999999999, -5.684341886080802e-14, -1.1368683772161603e-13)"/>
  <path opacity="1.000000" stroke="none" d="&#10;M288.998474,216.770813 &#10;&#9;C287.203613,233.585510 276.412933,247.573166 258.468750,251.988327 &#10;&#9;C237.955872,257.035522 213.840073,241.722122 211.991852,218.351395 &#10;&#9;C210.413910,198.398102 220.770691,182.496078 239.626907,176.854843 &#10;&#9;C252.795883,172.915070 264.765808,175.688721 275.247131,184.748383 &#10;&#9;C284.901825,193.093536 289.601746,203.530045 288.998474,216.770813 &#10;z" style="fill: rgb(255, 255, 255);" transform="matrix(0.9999999999999999, 0, 0, 0.9999999999999999, -5.684341886080802e-14, -1.1368683772161603e-13)"/>
  <path opacity="1.000000" stroke="none" d="&#10;M680.838379,1147.194214 &#10;&#9;C696.203308,1160.034058 704.365051,1176.315674 707.068115,1195.736328 &#10;&#9;C708.871094,1208.690186 706.646729,1220.894531 701.519470,1232.605347 &#10;&#9;C691.043518,1256.532959 673.073486,1271.859985 647.289612,1276.702759 &#10;&#9;C619.191284,1281.980591 595.189331,1273.223877 576.636108,1251.780762 &#10;&#9;C554.053772,1225.680908 552.697815,1189.862305 571.624146,1162.659180 &#10;&#9;C586.639832,1141.077026 607.560852,1129.138550 635.061951,1129.947388 &#10;&#9;C649.738464,1130.379028 662.604004,1134.807251 674.740173,1142.369873 &#10;&#9;C676.827393,1143.670532 678.588318,1145.494873 680.838379,1147.194214 &#10;z" style="fill: rgb(255, 255, 255);" transform="matrix(0.9999999999999999, 0, 0, 0.9999999999999999, -5.684341886080802e-14, -1.1368683772161603e-13)"/>
</svg>